<?xml version="1.0" encoding="utf-8"?>
<!-- Generator: Adobe Illustrator 17.0.0, SVG Export Plug-In . SVG Version: 6.00 Build 0)  -->
<!DOCTYPE svg PUBLIC "-//W3C//DTD SVG 1.1//EN" "http://www.w3.org/Graphics/SVG/1.1/DTD/svg11.dtd">
<svg version="1.1" id="Layer_1_xA0_Image_1_" xmlns="http://www.w3.org/2000/svg" xmlns:xlink="http://www.w3.org/1999/xlink"
	 x="0px" y="0px" width="170.84px" height="163.68px" viewBox="-11.5 0 170.84 163.68"
	 enable-background="new -11.5 0 170.84 163.68" xml:space="preserve">
<path d="M59.171,0.218c0.76,0,1.519,0,2.279,0c1.613,0.842,3.327,1.504,4.817,2.563c3.881,2.756,7.652,5.706,11.502,8.521
	c0.437,0.319,1.11,0.436,1.639,0.359c2.293-0.338,4.585-1.2,6.856-1.115c7.844,0.294,15.353-1.429,22.795-3.938
	c1.253-0.422,2.67-0.228,4.477-0.35c-0.686,2.375-1.206,4.273-1.784,6.148c-0.59,1.912-0.797,3.791-0.138,5.757
	c0.631,1.88,1.207,3.791,1.684,5.728c0.579,2.353,1.266,2.946,3.468,2.602c2.347-0.367,4.679-0.868,7.033-1.134
	c2.719-0.309,3.359,0.491,2.827,3.48c-0.12,0.675-0.722,1.293-1.203,1.826c-1.117,1.239-1.003,2.109,0.498,2.631
	c2.124,0.74,4.296,1.317,6.41,2.091c2.584,0.943,5.181,1.232,7.844,0.6c1.112-0.263,2.21-0.696,3.332-0.789
	c1.099-0.092,2.221,0.15,3.332,0.245c0.036,0.241,0.072,0.483,0.108,0.724c-0.751,0.472-1.459,1.079-2.261,1.391
	c-2.739,1.066-5.142,2.712-7.177,5.01c-0.574,0.648-1.028,1.429-1.772,2.48c1.941-0.105,3.442-0.192,4.946-0.265
	c5.588-0.271,11.174-0.539,16.762-0.808c0,1.49,0,2.981,0,4.471c-2.191,0.838-3.88,2.381-5.182,4.519
	c-0.464,0.761-0.667,1.332-0.221,2.292c0.258,0.554,0.008,1.63-0.336,2.244c-0.351,0.625-1.063,1.041-1.677,1.427
	c-2.199,1.38-3.718,3.415-4.768,5.95c-0.757,1.831-1.595,3.621-2.331,5.463c-0.855,2.141-2.2,3.472-4.301,3.98
	c-1.67,0.405-2.716,2.977-2.022,4.695c0.6,1.485,0.557,2.924-0.179,4.274c-4.04,7.419-7.471,15.334-13.436,21.213
	c-1.589,1.566-3.239,3.071-4.953,4.462c-1.456,1.182-3.072,2.112-4.569,3.238c-1.136,0.854-1.091,1.524,0.165,2.116
	c0.905,0.426,1.897,0.635,2.865,0.868c4.487,1.085,9.026,1.95,13.459,3.268c4.413,1.312,8.638,3.283,12.172,6.679
	c3.405,3.272,5.151,7.452,3.819,12.364c-0.995,3.666-2.809,7.052-4.238,10.573c-0.551,1.359-1.471,2.254-2.733,2.564
	c-2.682,0.657-5.37,1.333-8.086,1.727c-0.782,0.113-1.952-0.458-2.461-1.156c-1.595-2.186-3.642-3.713-5.886-4.564
	c-3.442-1.307-7.037-2.128-10.595-3.013c-1.231-0.306-2.569-0.405-3.818-0.23c-3.421,0.475-6.819,1.146-10.458,1.779
	c0,2.244,0.14,4.583-0.031,6.895c-0.302,4.057-2.481,6.475-6.121,6.526c-2.487,0.033-5.062-0.164-7.451-0.878
	c-4.203-1.258-8.262-3.102-12.439-4.489c-3.815-1.267-7.333-3.186-10.664-5.556c-0.675-0.48-1.393-1.32-1.576-2.138
	c-0.312-1.393-0.954-1.686-2.186-1.344c0.49-1.641-0.775-1.584-1.378-2.218c-1.827-1.926-3.513-4.02-5.355-5.926
	c-0.451-0.466-1.359-0.764-1.934-0.6c-0.906,0.258-1.38,1.28-1.003,2.297c0.468,1.255,0.024,2.188-0.564,3.083
	c-0.664,1.014-1.381,2.004-2.189,2.872c-0.902,0.97-1.944,2.543-2.9,2.519c-1.868-0.045-2.694,1.584-3.99,2.321
	c-1.541,0.877-2.466,2.968-4.449,3.295c-0.253,0.041-0.588,0.475-0.648,0.784c-0.228,1.2-1.093,1.55-1.855,2.189
	c-0.893,0.747-1.787,0.951-2.802,1.081c-2.111,0.269-4.256,1.031-6.313,0.789c-3.183-0.375-6.332-1.295-9.436-2.226
	c-2.095-0.628-3.763-2.182-4.493-4.534c-0.75-2.413-2.286-3.476-4.337-4.089c-1.732-0.519-3.452-1.147-5.11-1.911
	c-1.543-0.712-2.823-1.969-3.171-3.854c-0.964-5.205-0.817-10.235,2.166-14.769c0.86-1.305,1.643-2.765,2.106-4.29
	c1.033-3.403,2.673-6.321,4.865-8.896c1.458-1.714,1.372-2.221-0.495-3.473c-1.954-1.309-3.907-2.619-5.83-3.984
	c-0.351-0.25-0.594-0.74-0.813-1.167c-0.242-0.468-0.319-1.063-0.612-1.473c-0.621-0.87-1.323-1.67-2.018-2.473
	C-6.094,98.684-5.859,98-5.039,97.514c0.444-0.263,0.976-0.439,1.477-0.47c9.623-0.592,18.191-4.358,25.898-10.885
	c-0.232-0.285-0.501-0.648-0.798-0.979c-4.066-4.548-8.245-8.979-12.171-13.676c-2.91-3.483-5.687-7.155-8.144-11.045
	c-1.381-2.188-2.326-4.901-2.873-7.533c-0.934-4.494-1.425-9.105-2.056-13.675c-0.456-3.303-1.058-6.612,0.525-9.812
	c1.924-3.89,0.796-7.34-1.4-10.735c-0.261,0.604-0.48,1.111-0.844,1.951c-1.699-1.834-3.335-3.501-4.868-5.278
	c-1.662-1.928-1.604-2.382,0.152-4.226c0.206-0.217,0.451-0.438,0.561-0.715c0.671-1.701,1.878-1.975,3.382-1.832
	C-0.955,9.1,4.29,9.553,9.536,9.964c5.083,0.398,9.418,2.92,13.734,5.69c5.065,3.251,7.139,8.404,7.894,14.504
	c0.25,2.021,1.31,3.423,3.203,3.556c1.584,0.11,2.069-1.305,2.59-2.679c0.847-2.236,1.816-4.413,2.704-6.63
	c0.249-0.621,0.547-1.288,0.563-1.942c0.045-1.882,0.917-3.107,2.3-3.919c1.51-0.886,3.062-1.685,4.614-2.477
	c3.996-2.037,7.001-5.139,8.845-9.697C56.853,4.215,58.097,2.261,59.171,0.218z M38.355,104.701
	c-0.538,0.194-1.071,0.373-1.594,0.578c-7.734,3.017-15.526,5.859-23.178,9.121c-5.091,2.17-9.232,5.825-11.329,11.798
	c-0.213,0.608-0.643,1.215-1.118,1.596c-1.814,1.46-2.403,3.455-2.279,5.843c0.049,0.954,0.055,1.912,0.045,2.869
	c-0.032,3.389,0.475,4.226,3.32,5.463c1.986,0.862,3.994,1.67,5.936,2.64c1.463,0.731,2.73,1.871,3.067,3.741
	c0.517,2.866,2.2,4.379,4.572,4.731c6.14,0.91,12.066,0.617,16.733-4.925c0.453-0.538,0.968-1.035,1.517-1.441
	c0.817-0.605,1.644-1.268,2.554-1.633c2.145-0.86,3.853-2.33,4.477-4.751c0.593-2.308,0.995-4.772,0.976-7.163
	c-0.048-6.289,0.039-12.536,1.393-18.684c0.097-0.443,0.122-1.011-0.042-1.407c-1.433-3.467-2.886-6.924-4.409-10.341
	c-0.318-0.712-0.916-1.376-1.99-0.591C37.461,103.004,37.877,103.795,38.355,104.701z M78.021,93.822
	c1.768,1.057,3.38,1.922,4.899,2.96c1.294,0.885,2.379,0.918,3.602-0.185c0.52-0.47,1.384-0.792,2.034-0.695
	c2.236,0.333,4.405,0.142,6.38-1.017c2.009-1.178,4.068-1.627,6.3-1.528c1.929,0.087,3.326-0.829,4.142-2.925
	c2.113-5.424,4.475-10.675,8.229-14.992c1.43-1.645,1.807-3.672,0.918-5.897c-0.483-1.21-0.72-2.554-1.278-3.71
	c-0.747-1.549-1.698-2.976-2.785-4.833c-0.632,1.816-1.013,3.115-1.547,4.334c-0.172,0.393-0.781,0.856-1.114,0.792
	c-1.126-0.217-1.776,0.286-2.317,1.309c-0.433,0.821-1.026,1.533-1.48,2.342c-1.6,2.854-2.17,2.308-3.105-0.267
	c-0.431-1.187-1.066-1.376-2.081-1.262c-1.79,0.201-3.6,0.414-5.386,0.305c-0.754-0.047-1.629-0.735-2.175-1.411
	c-1.377-1.71-0.914-3.492,0.519-5.344c-1.132,0-1.936-0.101-2.714,0.017c-4.181,0.636-8.37,1.239-12.531,2.023
	c-5.718,1.078-10.783,3.597-14.619,8.727c-0.974,1.303-1.38,2.518-0.812,4.205c0.567,1.686,0.346,3.335-1.103,4.823
	c-0.216-1.492-0.405-2.803-0.595-4.113c-0.138-0.067-0.275-0.134-0.414-0.201c-1.368,1.719-2.734,3.44-4.377,5.505
	c9.969-0.631,17.742,4.519,25.653,9.592C79.525,92.853,78.887,93.265,78.021,93.822z M44.948,92.209
	c0,0.673-0.026,1.251,0.005,1.824c0.173,3.238,0.501,6.473,0.508,9.71c0.01,4.63,1.584,8.44,4.237,11.852
	c0.694,0.892,1.299,1.11,2.303,0.747c3.201-1.155,6.435-2.194,9.654-3.291c0.737-0.252,1.417-0.44,1.607,0.88
	c-2.211,0.705-4.438,1.416-6.864,2.19c2.481,1.77,4.951,2.419,7.524,2.713c7.787,0.89,15.11-0.351,21.662-5.596
	c2.115-1.693,4.439-3.061,6.677-4.558c0.28-0.186,0.627-0.249,1.224-0.475c-0.259,1.063-0.431,1.773-0.604,2.483
	c0.114,0.104,0.228,0.208,0.342,0.311c2.765-2.732,5.54-5.455,8.283-8.213c0.235-0.237,0.473-0.804,0.378-1.065
	c-0.516-1.42-1.077-2.829-1.756-4.156c-0.213-0.417-0.898-0.87-1.277-0.786c-2.776,0.605-5.683,0.893-7.938,3.138
	c-1.774,1.765-3.516,3.568-5.256,5.374c-3.173,3.291-7.963,3.441-11.216,0.315c-1.153-1.107-2.331-2.196-3.39-3.411
	c-0.778-0.896-1.475-0.86-2.178-0.087c-1.114,1.224-2.147,2.543-3.256,3.775c-0.255,0.282-0.673,0.375-1.016,0.556
	c-0.026-0.426-0.167-0.892-0.061-1.27c0.864-3.079,2.913-4.953,5.221-6.679c1.075-0.804,2.04-2.068,2.618-3.368
	c0.766-1.717,0.244-3.65-1.104-4.317c-3.546-1.755-7.142-3.403-10.783-4.889c-1.479-0.604-2.193,0.071-2.568,1.759
	c-0.822,0.189-1.663,0.383-2.858,0.659c1.422,0.712,2.481,1.24,3.539,1.77c-0.007,0.094-0.014,0.188-0.022,0.282
	C54.084,90.986,49.584,91.588,44.948,92.209z M139.22,125.85c-0.566-0.417-0.982-0.844-1.472-1.062
	c-3.302-1.473-6.574-3.053-9.938-4.318c-10.442-3.927-20.943-5.243-31.656-1.021c-2.199,0.866-4.742,0.643-7.126,0.91
	c-1.297,0.145-2.653,0.036-3.881,0.432c-5.144,1.662-10.248,3.471-15.368,5.23c-0.328,0.113-0.644,0.262-1.355,0.554
	c1.276,0.58,2.156,1.107,3.097,1.388c10.074,3.01,20.166,5.944,30.234,8.981c5.165,1.558,10.256,3.44,15.449,4.856
	c2.432,0.664,5.028,0.572,7.614,0.829c0.071-0.977,0.112-1.546,0.162-2.21c0.538-0.116,1.044-0.208,1.544-0.338
	c1.301-0.339,1.504-0.836,0.746-2.108c-0.764-1.281-1.662-2.462-2.419-3.749c-1.362-2.318-2.662-4.683-3.99-7.029
	c4.627,1.202,7.711,4.559,10.506,8.453c1.458-3.968,1.002-5.521-2.119-7.38c-1.548-0.922-3.148-1.734-4.72-2.604
	c-0.517-0.286-1.024-0.597-1.536-0.898c2.09-0.286,4.081-0.19,6.062-0.311c2.261-0.138,4.187,0.6,5.92,2.193
	c0.303,0.278,0.852,0.467,1.215,0.369C137.145,126.754,138.063,126.311,139.22,125.85z M120.336,29.853
	c-0.178-0.222-0.357-0.443-0.535-0.665c-1.51,0.454-3.102,0.701-4.512,1.407c-2.974,1.486-5.944,2.433-9.227,1.564
	c-1.192-0.315-2.44-0.494-3.664-0.5c-0.738-0.004-1.811,0.174-2.164,0.728c-2.16,3.381-1.767,7.251-1.574,11.378
	c0.553-0.55,0.868-0.866,1.187-1.178c1.972-1.916,3.09-2.089,4.962-0.118c1.872,1.969,3.471,4.262,5.293,6.542
	c-1.38,0.156-2.442,0.113-3.412,0.425c-1.488,0.478-1.706,1.999-1.788,3.467c-0.078,1.395,1.071,1.144,1.731,1.391
	c1.603,0.596,3.093,1.256,4.088,2.942c1.142,1.932,2.521,3.534,4.918,2.976c0.75,2.995,1.458,5.823,2.093,8.361
	c4.245-2.003,8.351-3.902,12.427-5.877c3.089-1.496,5.747-3.666,7.979-6.522c1.621-2.073,3.369-4.019,5.062-6.022
	c0.462-0.547,0.923-1.093,1.422-1.681c-3.975,0-7.756-0.084-11.532,0.064c-0.848,0.033-1.678,0.869-2.506,1.355
	c-2.182,1.28-4.356,2.572-6.253,3.691c-0.742-1.528-1.302-2.68-1.886-3.882c0.825-0.526,1.831-1.111,2.784-1.791
	c1.483-1.059,1.514-1.617,0.224-2.884c-0.463-0.455-0.97-0.853-1.453-1.283c-1.424-1.267-1.396-1.997,0.182-3.095
	c1.11-0.772,2.263-1.462,3.413-2.2c-2.839-3.951-3.506-4.002-6.941-1.074c-0.782,0.667-1.85,0.912-2.768,1.341
	c-0.819-1.379-0.843-2.466-0.014-3.572c0.548-0.731,1.11-1.484,1.494-2.325C119.795,31.887,120.023,30.846,120.336,29.853z
	 M57.333,33.569c-0.245-0.075-0.492-0.15-0.737-0.225c-2.105,2.49-4.186,5.005-6.32,7.463c-2.538,2.922-5.129,5.787-7.675,8.702
	c-0.349,0.399-0.647,0.906-0.833,1.425c-1.513,4.212-1.598,8.598-0.445,12.83c1.37,5.024,1.715,10.091,1.644,15.27
	c-0.058,4.258,0.013,4.29,3.866,4.892c2.099,0.327,2.578,0.124,3.595-1.902c3.264-6.497,7.683-11.832,12.91-16.383
	c0.817-0.712,1.615-1.504,2.258-2.405c1.013-1.419,1.009-3.081-0.159-4.33c-0.698-0.747-1.73-1.263-2.688-1.5
	c-1.517-0.377-3.058-0.52-4.181-2.395c0.867-0.081,1.508-0.138,2.147-0.202c0.895-0.089,1.8-0.114,2.682-0.293
	c1.14-0.232,1.751-1.102,1.232-2.308c-0.686-1.597-1.612-3.066-2.444-4.583c-0.686-1.252-1.611-2.407-2.034-3.761
	C59.092,40.479,58.258,37.006,57.333,33.569z M90.015,16.449c-0.047-0.186-0.094-0.374-0.141-0.56
	c1.067-1.023,2.134-2.045,3.508-3.363c-0.816-0.084-1.174-0.174-1.525-0.148c-2.698,0.208-5.422,0.242-8.086,0.704
	c-4.246,0.737-8.022,3.001-9.623,7.507c-1.263,3.552-2.207,7.257-3.643,10.78c-0.696,1.705-1.404,3.139-2.714,4.314
	c-1.056,0.947-1.971,2.128-2.813,3.324c-0.328,0.464-0.577,1.516-0.347,1.83c0.328,0.45,1.118,0.514,1.725,0.663
	c1.175,0.29,2.418,0.359,3.529,0.826c1.276,0.538,2.412,1.482,3.669,2.093c0.453,0.221,1.192,0.201,1.614-0.072
	c2.669-1.726,5.281-3.565,7.921-5.347c2.883-1.944,6.007-3.545,8.607-5.883c3.2-2.88,6.652-4.132,10.639-4.045
	c1.232,0.027,2.472-0.021,3.697-0.156c2.636-0.29,3.354-1.462,2.553-4.273c-0.401-1.408-0.937-2.788-1.558-4.092
	c-2.246-4.716-2.563-4.841-6.931-2.707c-2.03,0.993-4.033,0.568-6.131,0.363c0.201-0.862,0.342-1.47,0.51-2.197
	C92.928,16.163,91.472,16.305,90.015,16.449z M10.041,13.781c1.059,0.833,1.924,1.403,2.664,2.131
	c0.493,0.486,0.808,1.198,1.204,1.807c-0.641,0.33-1.26,0.854-1.927,0.946c-1.137,0.157-2.304,0.044-3.594,0.044
	c0.181,0.409,0.217,0.57,0.305,0.672c3.835,4.422,5.536,10.223,7.965,15.55c0.336,0.737,0.477,1.616,0.587,2.449
	c0.433,3.247,0.797,6.505,1.227,9.752c0.285,2.153-0.113,3.101-1.804,4.004c1.459,5.826,2.895,11.655,4.402,17.461
	c0.217,0.838,0.627,1.777,1.208,2.306c2.037,1.852,3.054,4.431,4.199,6.921c0.894,1.944,2.358,3.085,4.058,4.061
	c0-4.703,0.14-9.311-0.046-13.905c-0.135-3.323-0.402-6.549,1.121-9.631c0.832-1.682,0.813-3.58,0.392-5.445
	c-0.825-3.656-1.574-7.335-2.495-10.96C27.851,35.418,26.552,28.726,23.02,23c-0.237-0.385-0.366-0.862-0.509-1.312
	C20.862,16.529,15.296,12.864,10.041,13.781z M62.357,31.61c0.211-0.178,0.406-0.273,0.504-0.438
	c0.829-1.393,1.597-2.833,2.464-4.194c1.543-2.425,3.144-4.801,4.714-7.203c0.757-1.158,1.603-2.266,2.2-3.522
	c0.295-0.619,0.41-1.759,0.095-2.24c-0.605-0.921-2.879-0.661-3.808-0.144c-0.879,0.49-1.924,0.77-2.906,0.814
	c-0.922,0.041-1.853-0.417-2.792-0.532c-1.564-0.194-3.032,0.017-4.054,1.62c-0.613,0.961-1.48,1.194-2.389,0.685
	c-1.32-0.739-2.585-0.468-3.852,0.065c-6.546,2.756-9.511,9.021-12.078,15.635c-0.288,0.739-0.209,1.679-0.217,2.527
	c-0.031,3.244,0.047,6.494-0.07,9.734c-0.061,1.687,0.368,2.628,1.974,2.669c2.97-4.321,5.913-8.69,8.953-12.972
	c1.054-1.485,2.362-2.741,3.525-4.132c0.574-0.688,1.328-1.359,1.56-2.192c0.343-1.224,1.039-1.693,1.966-1.616
	c1.034,0.086,2.015,0.685,2.076,2.009C60.296,29.837,61.063,30.813,62.357,31.61z M5.459,35.283
	c-0.464-1.007-0.825-1.87-1.258-2.684c-0.139-0.259-0.483-0.558-0.71-0.536c-0.25,0.024-0.611,0.345-0.691,0.621
	c-0.832,2.892-1.522,5.731-0.695,8.881c0.46,1.749,0.443,3.793,0.169,5.613c-0.383,2.544-0.487,5.014,0.433,7.356
	c0.855,2.174,1.88,4.292,3.032,6.286c3.999,6.924,9.603,12.158,14.992,17.607c0.79,0.8,1.667,1.493,2.503,2.236
	c0.108-0.098,0.216-0.197,0.324-0.295c-0.248-0.498-0.452-1.031-0.752-1.485c-3.158-4.792-5.643-10.002-7.027-15.745
	c-1.556-6.458-2.801-13.011-4.185-19.522c-0.94-4.419-1.887-8.836-2.915-13.644C7.5,31.921,6.524,33.529,5.459,35.283z
	 M107.208,101.502c0.87-0.663,1.725-1.223,2.49-1.91c5.848-5.255,10.092-12.064,14.306-18.867c1.636-2.64,3.297-5.125,5.588-7.133
	c1.44-1.263,2.528-3.03,3.932-4.765c-3.208-0.652-10.17,1.109-12.353,2.945c-0.375,0.315-0.683,0.731-1.027,1.095
	c-0.574,0.611-1.105,1.291-1.737,1.815c-2.092,1.739-4.718,3.196-5.331,6.163c-0.652,3.162-3.587,4.394-4.183,7.399
	c-0.081,0.413-0.248,0.802-0.35,1.211c-0.345,1.38-0.437,2.924-1.067,4.111C106.12,96.119,106.36,98.625,107.208,101.502z
	 M36.047,96.909c-1.364-1.699-2.607-3.302-3.917-4.835c-0.245-0.287-0.752-0.293-1.14-0.428c-0.048,0.134-0.099,0.269-0.147,0.403
	c0.645,1.437,1.292,2.874,1.939,4.312c-0.124,0.141-0.245,0.282-0.369,0.423c-0.376-0.281-0.89-0.467-1.104-0.86
	c-0.588-1.083-1.096-2.232-1.556-3.393c-0.811-2.047-1.216-2.296-3.02-1.54c-2.437,1.022-4.877,2.044-7.291,3.131
	c-0.781,0.351-1.463,0.966-2.232,1.36c-1.088,0.559-2.179,1.232-3.334,1.485c-2.242,0.49-4.463,0.824-6.226,2.736
	c-0.924,1.003-2.191,1.162-3.309,0.415c-1.237-0.824-2.097-0.294-3.122,0.681c0.338,0.335,0.586,0.798,0.876,0.834
	c2.161,0.261,4.33,0.439,6.497,0.639c1.148,0.105,2.348,0,3.435,0.345c2.191,0.695,4.313,1.268,6.472-0.069
	c0.257-0.16,0.634-0.077,0.954-0.102c1.434-0.113,2.882-0.122,4.297-0.367c1.393-0.242,2.739-0.818,4.132-1.082
	C30.871,100.433,33.664,99.438,36.047,96.909z M97.373,48.576c-2.552,0.865-4.915,1.765-7.323,2.463
	c-6.292,1.824-12.36,4.945-19.125,4.149c-0.519-0.061-1.399,0.767-1.646,1.408c-0.382,0.989-0.561,2.2-0.448,3.266
	c0.077,0.739,0.686,1.532,1.24,2.053c0.673,0.635,1.42,0.492,2.143-0.248c1.328-1.361,2.774-2.576,4.119-3.919
	c0.571-0.571,1.067-0.824,1.729-0.266c2.476,2.088,5.245,2.494,8.221,1.866c1.02-0.216,2.087-0.17,3.103-0.403
	c2.683-0.612,5.415-1.089,8.002-2.043c2.28-0.841,3.454-2.949,3.529-5.851c-0.796,0.1-1.487,0.214-2.183,0.27
	c-1.819,0.148-1.941-0.025-1.471-1.959C97.302,49.21,97.308,49.049,97.373,48.576z M67.774,140.338
	c-0.083,0.153-0.166,0.305-0.25,0.458c1.096,1.001,2.093,2.194,3.305,2.968c4.457,2.849,8.986,5.559,13.557,8.362
	c-0.195,0.619-0.5,1.59-0.875,2.781c1.522,0.334,2.852,0.667,4.196,0.894c0.336,0.057,0.976-0.146,1.024-0.358
	c0.096-0.426,0.003-1.041-0.23-1.397c-0.978-1.496-2.114-2.866-3.048-4.394c-1.584-2.588-3.612-4.505-6.263-5.504
	c-3.541-1.337-7.109-2.592-10.671-3.86C68.297,140.208,68.023,140.317,67.774,140.338z M62.161,126.518
	c0.94,1.956,1.667,3.706,2.596,5.308c0.541,0.933,1.275,0.846,1.649-0.342c0.345-1.098,0.814-2.17-0.049-3.279
	C65.358,126.926,64.191,126.24,62.161,126.518z M34.09,37.101c0.3,3.9,0.578,7.702,0.91,11.496c0.037,0.417,0.394,0.797,0.603,1.195
	c0.175-0.446,0.523-0.902,0.502-1.337c-0.162-3.495-0.416-6.984-0.585-10.477C35.467,36.864,34.993,36.792,34.09,37.101z
	 M95.844,115.347c-1.835-0.743-3.954,0.138-5.636,2.484C92.321,117.025,94.458,117.688,95.844,115.347z M36.951,56.854
	c-1.197-0.025-1.333,0.313-1.861,4.352c0.391,0.044,0.775,0.087,1.205,0.134C36.52,59.794,36.726,58.386,36.951,56.854z
	 M104.46,105.961c-1.399-0.653-1.873-0.152-2.823,2.583C103.656,108.997,103.331,106.741,104.46,105.961z M103.73,142.003
	c0.003-0.262,0.006-0.526,0.009-0.788c-1.435,0.092-2.87,0.184-4.304,0.277c0.001,0.234,0.003,0.467,0.005,0.701
	C100.865,142.698,102.299,142.096,103.73,142.003z"/>
</svg>
